# xmcd
#
# Track frame offsets:
#	150
#	11595
#	31195
#	43152
#	55423
#	67487
#	80116
#	89222
#	99706
#	110262
#	121899
#	132660
#	142096
#	153788
#	165321
#	178926
#	189358
#
# Disc length: 2655
#
# Revision: 1
# Processed by: cddbd v1.5.1PL0 Copyright (c) Steve Scherf et al.
# Submitted via: CDex 1.51
# Normalized: r0:DSETVAR1,TDELIM( - )
#
DISCID=f80a5d11
DTITLE=Various Artist - The Stars of Country Music
DYEAR=1999
DGENRE=Country
TTITLE0=Don Gibson - Oh Lonesome Me
TTITLE1=Marty Robbins - El Paso
TTITLE2=Jim Reeves - Mexican Joe
TTITLE3=Jerry Lee Lewis - Crazy Arms
TTITLE4=Johnny Cash - Next In Line
TTITLE5=Lee Hazlewood - These Boots are Made for Walking
TTITLE6=George Jones - The World's Worst Loser
TTITLE7=Waylon Jennings - Sally Was A Good Old Girl
TTITLE8=Slim Whitman - Rose Marie
TTITLE9=Hank Williams - Settin' the Woods On Fire
TTITLE10=Dolly Partpon - Honky Tonk Angels
TTITLE11=George Jones - The Race Is On
TTITLE12=Jim Reeves - Yonder Comes A Sucker
TTITLE13=Conway Twitty - Broken Heart
TTITLE14=The Jordanaires - Peace In The Valley
TTITLE15=Johnny Cash - Train Of Love
TTITLE16=Dolly Parton - Please Release Me
EXTD=YEAR: 1999
EXTT0=
EXTT1=
EXTT2=
EXTT3=
EXTT4=
EXTT5=
EXTT6=
EXTT7=
EXTT8=
EXTT9=
EXTT10=
EXTT11=
EXTT12=
EXTT13=
EXTT14=
EXTT15=
EXTT16=
PLAYORDER=
